<?xml version="1.0" encoding="iso-8859-1"?>
<!-- Uploaded to: SVG Repo, www.svgrepo.com, Generator: SVG Repo Mixer Tools -->
<svg fill="#FFBC5E" height="800px" width="800px" version="1.1" id="Layer_1" xmlns="http://www.w3.org/2000/svg" xmlns:xlink="http://www.w3.org/1999/xlink" 
	 viewBox="0 0 512 512" xml:space="preserve">
<g>
	<g>
		<path d="M256.001,261.992c-128.627,0-233.273,104.646-233.273,233.273c0,9.242,7.492,16.734,16.734,16.734h433.078
			c9.242,0,16.734-7.492,16.734-16.734C489.273,366.638,384.627,261.992,256.001,261.992z M56.889,478.532
			c7.311-87.75,71.577-159.569,155.623-178.298l20.894,20.894l-7.633,92.416c-0.317,3.833,0.727,7.655,2.95,10.796l21.294,30.089
			c1.373,1.941,3.604,3.096,5.982,3.096c2.378,0,4.609-1.154,5.983-3.096l21.294-30.089c2.222-3.139,3.266-6.963,2.95-10.796
			l-7.633-92.416l20.894-20.894c84.046,18.728,148.311,90.548,155.623,178.298H56.889z"/>
	</g>
</g>
<g>
	<g>
		<path d="M375.048,36.497c-9.125-3.05-18.938,0.267-24.462,7.606L326.111,76.62L270.888,8.155C266.706,2.973,260.489,0,253.828,0
			c-6.662,0-12.882,2.974-17.06,8.158l-55.054,68.255l-20.142-27.44c-5.519-7.519-15.38-10.846-24.494-7.859
			c-9.029,2.957-15.094,11.329-15.094,20.828v135.041c0,15.597,12.689,28.286,28.286,28.286h211.46
			c15.596,0,28.285-12.689,28.285-28.285v-139.7C390.016,47.844,383.999,39.489,375.048,36.497z M155.452,97.193l12.148,16.55
			c3.073,4.187,7.916,6.709,13.108,6.827c5.183,0.1,10.145-2.181,13.406-6.224l59.713-74.031l59.713,74.031
			c3.239,4.015,8.151,6.322,13.306,6.226c5.159-0.087,9.988-2.547,13.089-6.669l16.611-22.07v45.253H155.452V97.193z
			 M356.548,191.801H155.452v-21.246h201.095V191.801z"/>
	</g>
</g>
<defs>
<linearGradient id="paint0_linear" x1="2.12767" y1="1" x2="30.7018" y2="17.5237" gradientUnits="userSpaceOnUse">
<stop offset="0.259336" stop-color="#FFDB6E"/>
<stop offset="1" stop-color="#FFBC5E"/>
</linearGradient>
<linearGradient id="paint1_linear" x1="1.59976" y1="8.08974e-07" x2="31.8368" y2="17.6727" gradientUnits="userSpaceOnUse">
<stop offset="0.259336" stop-color="#FFDB6E"/>
<stop offset="1" stop-color="#FFBC5E"/>
</linearGradient>
</defs>
</svg>